<svg xmlns="http://www.w3.org/2000/svg" viewBox="0 0 400 100" width="400" height="100">
  <!-- UiPath new branding logo - white for dark backgrounds -->
  <g fill="white">
    <!-- U -->
    <path d="M0 20h8v42c0 12 5.5 18 16.5 18s16.5-6 16.5-18V20h8v43c0 16-8.5 25-24.5 25S0 79 0 63V20z"/>
    <!-- i dot + sparkle cluster -->
    <!-- small sparkle -->
    <path d="M55.5 14c0.8-4.8 4.6-8.6 9.4-9.4 0.1 0 0.1-0.1 0-0.1-4.8-0.8-8.6-4.6-9.4-9.4 0-0.1-0.1-0.1-0.1 0-0.8 4.8-4.6 8.6-9.4 9.4-0.1 0-0.1 0.1 0 0.1 4.8 0.8 8.6 4.6 9.4 9.4C55.4 14.1 55.5 14.1 55.5 14z"/>
    <!-- large sparkle -->
    <path d="M65 36c1.2-7.2 6.8-12.8 14-14 0.1 0 0.1-0.15 0-0.15-7.2-1.2-12.8-6.8-14-14-0.02-0.1-0.15-0.1-0.15 0-1.2 7.2-6.8 12.8-14 14-0.1 0.02-0.1 0.15 0 0.15 7.2 1.2 12.8 6.8 14 14C64.85 36.1 65 36.1 65 36z"/>
    <!-- i stem -->
    <rect x="51" y="38" width="8" height="45"/>
    <!-- P -->
    <path d="M88 20h18c14 0 22 6 22 17s-8 17-22 17H96v29h-8V20zm8 7v20h10c9 0 14-3.5 14-10s-5-10-14-10H96z"/>
    <!-- a -->
    <path d="M160 82c-2.5 1-5 1.5-8 1.5-12 0-20-8.5-20-22.5s8-22.5 20-22.5c3 0 5.5 0.5 8 1.5v-7c0 0 0 0 0 0h7.5v49h-7.5V82zm0-36c-2-1-4.5-1.5-7-1.5-8.5 0-13.5 5.5-13.5 16s5 16 13.5 16c2.5 0 5-0.5 7-1.5V46z"/>
    <!-- t -->
    <path d="M186 20h7.5v19H203v6h-9.5v24c0 7 2.5 9 7.5 9h2v5.5c-1 0.3-3 0.5-4.5 0.5-9 0-12.5-4.5-12.5-14V45H181v-6h5V20z"/>
    <!-- h -->
    <path d="M213 20h7.5v24c3-3.5 7.5-5.5 13-5.5 10 0 16 6 16 16v28.5H242V56c0-7.5-4-12-11-12-5 0-10.5 3-10.5 12v27h-7.5V20z"/>
  </g>
</svg>
