<svg width="32" height="32" viewBox="0 0 32 32" fill="none" xmlns="http://www.w3.org/2000/svg">
<rect width="32" height="32" fill="#FA4616"/>
<path d="M28.6848 28.6848V3.3152H3.3152V28.6912H28.6912L28.6848 28.6848Z" fill="#FA4616"/>
<path d="M6.1952 8.256V17.952C6.1952 22.3872 8.6272 24.9792 12.7424 24.9792C16.8576 24.9792 19.4176 22.336 19.4176 17.952V8.256H16.1024V17.952C16.1024 20.4608 15.0336 21.8496 12.8192 21.8496C10.6048 21.8496 9.504 20.3776 9.504 17.952V8.256H6.1888H6.1952Z" fill="white"/>
<path d="M23.6928 10.2336C24.8704 10.2336 25.7216 9.4336 25.7216 8.256C25.7216 7.0784 24.864 6.2272 23.6928 6.2272C22.5216 6.2272 21.664 7.0528 21.664 8.256C21.664 9.4592 22.5216 10.2336 23.6928 10.2336Z" fill="white"/>
<path d="M22.0352 11.808V24.8192H25.3504V11.808H22.0352Z" fill="white"/>
</svg>
